# Blender v2.69 (sub 0) OBJ File: 'depart.blend'
# www.blender.org
mtllib depart.mtl
o Plane
v 0.000000 0.000000 -10.000000
v 8.639494 -2.314946 4.472156
v 0.000000 0.000000 10.000000
v 8.216627 -2.201639 -5.257359
v 4.131625 -1.013773 -8.506542
v 9.209840 -2.374465 0.000000
v 5.078159 -1.360689 8.506516
v 0.000000 0.000000 -10.000000
v 7.745957 -4.472133 4.472156
v 0.000000 0.000000 10.000000
v 7.366826 -4.253241 -5.257359
v 3.728459 -2.048573 -8.506542
v 8.281466 -4.677239 0.000000
v 4.552953 -2.628650 8.506516
v 0.000000 0.000000 -10.000000
v 6.324547 -6.324550 4.472156
v 0.000000 0.000000 10.000000
v 6.014987 -6.014991 -5.257359
v 3.071205 -2.943766 -8.506542
v 6.788722 -6.661268 0.000000
v 3.717470 -3.717472 8.506516
v 0.000000 0.000000 -10.000000
v 4.472129 -7.745960 4.472156
v 0.000000 0.000000 10.000000
v 4.253237 -7.366829 -5.257359
v 2.204654 -3.638346 -8.506542
v 4.833338 -8.191341 0.000000
v 2.628648 -4.552955 8.506516
v 0.000000 0.000000 -10.000000
v 2.314942 -8.639496 4.472156
v 0.000000 0.000000 10.000000
v 2.201635 -8.216629 -5.257359
v 1.187858 -4.084979 -8.506542
v 2.548570 -9.163188 0.000000
v 1.360687 -5.078161 8.506516
v 0.000000 0.000000 -10.000000
v -0.000004 -8.944263 4.472156
v 0.000000 0.000000 10.000000
v -0.000005 -8.506479 -5.257359
v 0.090112 -4.253227 -8.506542
v 0.090121 -9.510578 0.000000
v -0.000003 -5.257298 8.506516
v 0.000000 0.000000 -10.000000
v -2.314950 -8.639493 4.472156
v 0.000000 0.000000 10.000000
v -2.201644 -8.216627 -5.257359
v -1.013775 -4.131625 -8.506542
v -2.374470 -9.209839 0.000000
v -1.360692 -5.078159 8.506516
v 0.000000 0.000000 -10.000000
v -4.472136 -7.745955 4.472156
v 0.000000 0.000000 10.000000
v -4.253245 -7.366824 -5.257359
v -2.048575 -3.728459 -8.506542
v -4.677244 -8.281462 0.000000
v -2.628653 -4.552952 8.506516
v 0.000000 0.000000 -10.000000
v -6.324553 -6.324544 4.472156
v 0.000000 0.000000 10.000000
v -6.014995 -6.014984 -5.257359
v -2.943768 -3.071204 -8.506542
v -6.661272 -6.788718 0.000000
v -3.717475 -3.717469 8.506516
v 0.000000 0.000000 -10.000000
v -7.745962 -4.472125 4.472156
v 0.000000 0.000000 10.000000
v -7.366831 -4.253232 -5.257359
v -3.638348 -2.204652 -8.506542
v -8.191344 -4.833333 0.000000
v -4.552957 -2.628645 8.506516
v 0.000000 0.000000 -10.000000
v -8.639497 -2.314938 4.472156
v 0.000000 0.000000 10.000000
v -8.216630 -2.201630 -5.257359
v -4.084980 -1.187856 -8.506542
v -9.163190 -2.548565 0.000000
v -5.078162 -1.360684 8.506516
v 0.000000 0.000000 -10.000000
v -8.944263 0.000009 4.472156
v 0.000000 0.000000 10.000000
v -8.506479 0.000010 -5.257359
v -4.253227 -0.090110 -8.506542
v -9.510579 -0.090116 0.000000
v -5.257298 0.000006 8.506516
v 0.000000 0.000000 -10.000000
v -8.639492 2.314955 4.472156
v 0.000000 0.000000 10.000000
v -8.216625 2.201649 -5.257359
v -4.131624 1.013777 -8.506542
v -9.209838 2.374474 0.000000
v -5.078158 1.360695 8.506516
v 0.000000 0.000000 -10.000000
v -7.745953 4.472141 4.472156
v 0.000000 0.000000 10.000000
v -7.366822 4.253249 -5.257359
v -3.728457 2.048577 -8.506542
v -8.281461 4.677248 0.000000
v -4.552950 2.628655 8.506516
v 0.000000 0.000000 -10.000000
v -6.324540 6.324557 4.472156
v 0.000000 0.000000 10.000000
v -6.014981 6.014997 -5.257359
v -3.071202 2.943770 -8.506542
v -6.788716 6.661276 0.000000
v -3.717466 3.717476 8.506516
v 0.000000 0.000000 -10.000000
v -4.472120 7.745965 4.472156
v 0.000000 0.000000 10.000000
v -4.253230 7.366834 -5.257359
v -2.204650 3.638349 -8.506542
v -4.833330 8.191348 0.000000
v -2.628642 4.552958 8.506516
v 0.000000 0.000000 -10.000000
v -2.314933 8.639498 4.472156
v 0.000000 0.000000 10.000000
v -2.201627 8.216632 -5.257359
v -1.187854 4.084981 -8.506542
v -2.548561 9.163193 0.000000
v -1.360681 5.078162 8.506516
v 0.000000 0.000000 -10.000000
v 0.000014 8.944263 4.472156
v 0.000000 0.000000 10.000000
v 0.000014 8.506480 -5.257359
v -0.090107 4.253228 -8.506542
v -0.090111 9.510580 0.000000
v 0.000008 5.257298 8.506516
v 0.000000 0.000000 -10.000000
v 2.314960 8.639490 4.472156
v 0.000000 0.000000 10.000000
v 2.201653 8.216625 -5.257359
v 1.013780 4.131624 -8.506542
v 2.374480 9.209838 0.000000
v 1.360698 5.078157 8.506516
v 0.000000 0.000000 -10.000000
v 4.472145 7.745951 4.472156
v 0.000000 0.000000 10.000000
v 4.253253 7.366820 -5.257359
v 2.048579 3.728457 -8.506542
v 4.677253 8.281459 0.000000
v 2.628657 4.552948 8.506516
v 0.000000 0.000000 -10.000000
v 6.324561 6.324537 4.472156
v 0.000000 0.000000 10.000000
v 6.015001 6.014979 -5.257359
v 2.943771 3.071201 -8.506542
v 6.661280 6.788713 0.000000
v 3.717478 3.717463 8.506516
v 0.000000 0.000000 -10.000000
v 7.745967 4.472116 4.472156
v 0.000000 0.000000 10.000000
v 7.366837 4.253226 -5.257359
v 3.638350 2.204648 -8.506542
v 8.191351 4.833326 0.000000
v 4.552958 2.628640 8.506516
v 0.000000 0.000000 -10.000000
v 8.639499 2.314928 4.472156
v 0.000000 0.000000 10.000000
v 8.216634 2.201622 -5.257359
v 4.084982 1.187852 -8.506542
v 9.163195 2.548556 0.000000
v 5.078163 1.360678 8.506516
v 0.000000 0.000000 -10.000000
v 8.944263 -0.000019 4.472156
v 0.000000 0.000000 10.000000
v 8.506481 -0.000018 -5.257359
v 4.253228 0.090105 -8.506542
v 9.510582 0.090106 0.000000
v 5.257298 -0.000011 8.506516
vt 0.000000 0.000000
vn 0.909605 -0.371451 -0.186128
vn 0.565590 -0.229609 -0.792078
vn 0.684643 -0.283589 0.671447
vn 0.311008 -0.121171 -0.942651
vn 0.254478 -0.105408 0.961317
vn 0.918516 -0.375217 0.124664
vn 0.602015 -0.776488 -0.186128
vn 0.375011 -0.481642 -0.792078
vn 0.451124 -0.587917 0.671447
vn 0.208756 -0.260441 -0.942651
vn 0.167680 -0.218526 0.961317
vn 0.607849 -0.784205 0.124664
vn 0.133116 -0.973466 -0.186128
vn 0.083948 -0.604620 -0.792078
vn 0.096726 -0.734713 0.671447
vn 0.050567 -0.329927 -0.942651
vn 0.035953 -0.273089 0.961317
vn 0.134310 -0.983067 0.124664
vn -0.371452 -0.909604 -0.186127
vn -0.229609 -0.565590 -0.792078
vn -0.283589 -0.684643 0.671447
vn -0.121171 -0.311008 -0.942651
vn -0.105408 -0.254478 0.961317
vn -0.375218 -0.918515 0.124664
vn -0.776489 -0.602015 -0.186128
vn -0.481642 -0.375010 -0.792078
vn -0.587917 -0.451124 0.671447
vn -0.260442 -0.208755 -0.942651
vn -0.218526 -0.167680 0.961317
vn -0.784206 -0.607849 0.124664
vn -0.973466 -0.133116 -0.186128
vn -0.604620 -0.083947 -0.792078
vn -0.734713 -0.096726 0.671447
vn -0.329927 -0.050567 -0.942651
vn -0.273089 -0.035952 0.961317
vn -0.983067 -0.134309 0.124664
vn -0.909604 0.371452 -0.186128
vn -0.565590 0.229609 -0.792078
vn -0.684643 0.283589 0.671447
vn -0.311008 0.121171 -0.942651
vn -0.254478 0.105409 0.961317
vn -0.918515 0.375218 0.124664
vn -0.602014 0.776489 -0.186128
vn -0.375010 0.481642 -0.792078
vn -0.451123 0.587917 0.671447
vn -0.208755 0.260442 -0.942651
vn -0.167681 0.218526 0.961317
vn -0.607848 0.784206 0.124665
vn -0.133115 0.973466 -0.186128
vn -0.083947 0.604620 -0.792078
vn -0.096725 0.734713 0.671447
vn -0.050567 0.329927 -0.942651
vn -0.035952 0.273089 0.961317
vn -0.134309 0.983067 0.124665
vn 0.371453 0.909604 -0.186128
vn 0.229610 0.565589 -0.792078
vn 0.283590 0.684643 0.671447
vn 0.121171 0.311008 -0.942651
vn 0.105409 0.254478 0.961317
vn 0.375219 0.918515 0.124665
vn 0.776489 0.602014 -0.186128
vn 0.481643 0.375010 -0.792078
vn 0.587917 0.451123 0.671447
vn 0.260441 0.208755 -0.942651
vn 0.218526 0.167680 0.961317
vn 0.784206 0.607848 0.124665
vn 0.973466 0.133114 -0.186128
vn 0.604620 0.083947 -0.792078
vn 0.734713 0.096725 0.671447
vn 0.329927 0.050566 -0.942651
vn 0.273089 0.035952 0.961317
vn 0.983066 0.134309 0.124665
usemtl Material
s off
f 6/1/1 13/1/1 11/1/1 4/1/1
f 4/1/2 11/1/2 12/1/2 5/1/2
f 7/1/3 14/1/3 9/1/3 2/1/3
f 5/1/4 12/1/4 8/1/4 1/1/4
f 7/1/5 3/1/5 10/1/5 14/1/5
f 6/1/6 2/1/6 9/1/6 13/1/6
f 20/1/7 27/1/7 25/1/7 18/1/7
f 18/1/8 25/1/8 26/1/8 19/1/8
f 21/1/9 28/1/9 23/1/9 16/1/9
f 19/1/10 26/1/10 22/1/10 15/1/10
f 21/1/11 17/1/11 24/1/11 28/1/11
f 20/1/12 16/1/12 23/1/12 27/1/12
f 34/1/13 41/1/13 39/1/13 32/1/13
f 32/1/14 39/1/14 40/1/14 33/1/14
f 35/1/15 42/1/15 37/1/15 30/1/15
f 33/1/16 40/1/16 36/1/16 29/1/16
f 35/1/17 31/1/17 38/1/17 42/1/17
f 34/1/18 30/1/18 37/1/18 41/1/18
f 48/1/19 55/1/19 53/1/19 46/1/19
f 46/1/20 53/1/20 54/1/20 47/1/20
f 49/1/21 56/1/21 51/1/21 44/1/21
f 47/1/22 54/1/22 50/1/22 43/1/22
f 49/1/23 45/1/23 52/1/23 56/1/23
f 48/1/24 44/1/24 51/1/24 55/1/24
f 62/1/25 69/1/25 67/1/25 60/1/25
f 60/1/26 67/1/26 68/1/26 61/1/26
f 63/1/27 70/1/27 65/1/27 58/1/27
f 61/1/28 68/1/28 64/1/28 57/1/28
f 63/1/29 59/1/29 66/1/29 70/1/29
f 62/1/30 58/1/30 65/1/30 69/1/30
f 76/1/31 83/1/31 81/1/31 74/1/31
f 74/1/32 81/1/32 82/1/32 75/1/32
f 77/1/33 84/1/33 79/1/33 72/1/33
f 75/1/34 82/1/34 78/1/34 71/1/34
f 77/1/35 73/1/35 80/1/35 84/1/35
f 76/1/36 72/1/36 79/1/36 83/1/36
f 90/1/37 97/1/37 95/1/37 88/1/37
f 88/1/38 95/1/38 96/1/38 89/1/38
f 91/1/39 98/1/39 93/1/39 86/1/39
f 89/1/40 96/1/40 92/1/40 85/1/40
f 91/1/41 87/1/41 94/1/41 98/1/41
f 90/1/42 86/1/42 93/1/42 97/1/42
f 104/1/43 111/1/43 109/1/43 102/1/43
f 102/1/44 109/1/44 110/1/44 103/1/44
f 105/1/45 112/1/45 107/1/45 100/1/45
f 103/1/46 110/1/46 106/1/46 99/1/46
f 105/1/47 101/1/47 108/1/47 112/1/47
f 104/1/48 100/1/48 107/1/48 111/1/48
f 118/1/49 125/1/49 123/1/49 116/1/49
f 116/1/50 123/1/50 124/1/50 117/1/50
f 119/1/51 126/1/51 121/1/51 114/1/51
f 117/1/52 124/1/52 120/1/52 113/1/52
f 119/1/53 115/1/53 122/1/53 126/1/53
f 118/1/54 114/1/54 121/1/54 125/1/54
f 132/1/55 139/1/55 137/1/55 130/1/55
f 130/1/56 137/1/56 138/1/56 131/1/56
f 133/1/57 140/1/57 135/1/57 128/1/57
f 131/1/58 138/1/58 134/1/58 127/1/58
f 133/1/59 129/1/59 136/1/59 140/1/59
f 132/1/60 128/1/60 135/1/60 139/1/60
f 146/1/61 153/1/61 151/1/61 144/1/61
f 144/1/62 151/1/62 152/1/62 145/1/62
f 147/1/63 154/1/63 149/1/63 142/1/63
f 145/1/64 152/1/64 148/1/64 141/1/64
f 147/1/65 143/1/65 150/1/65 154/1/65
f 146/1/66 142/1/66 149/1/66 153/1/66
f 160/1/67 167/1/67 165/1/67 158/1/67
f 158/1/68 165/1/68 166/1/68 159/1/68
f 161/1/69 168/1/69 163/1/69 156/1/69
f 159/1/70 166/1/70 162/1/70 155/1/70
f 161/1/71 157/1/71 164/1/71 168/1/71
f 160/1/72 156/1/72 163/1/72 167/1/72
